<svg width="265" height="205" viewBox="0 0 265 205" fill="none" xmlns="http://www.w3.org/2000/svg">
<path d="M264 111.251C264.027 109.667 265.001 112.75 264.967 113.574C264.817 117.24 264.345 120.893 263.488 124.462C261.227 133.874 256.829 142.671 251.144 150.478C234.323 173.576 208.011 190.077 181.03 198.68C133.415 213.864 78.7786 196.104 38.6965 168.947C21.1432 157.054 1.27724 138.82 0.9988 115.875C0.515574 76.0557 59.523 63.509 86.6947 49.8377C101.254 42.5124 115.25 33.9739 127.741 23.4588C137.496 15.2469 145.225 4.51233 158.353 1.76486C205.142 -8.02732 264.806 68.9076 265 111.253C265.008 113.108 263.937 108.751 263.914 108.362C263.674 104.369 262.968 100.411 261.987 96.5369C259.486 86.6624 255.257 77.2445 250.296 68.3763C235.192 41.3725 210.06 11.778 179.085 3.14758C167.522 -0.0742526 155.213 0.889539 145.262 8.00438C129.305 19.4141 116.629 33.5532 99.2946 43.5486C75.2919 57.3892 48.1214 65.3702 24.6625 80.0481C11.8212 88.0826 1.84416 99.3963 2.01025 115.29C2.33607 146.469 36.5476 168.068 61.0892 180.238C117.133 208.031 177.736 211.544 228.584 171.111C246.943 156.512 263.59 135.738 264 111.251Z" fill="black"/>
<path d="M246.682 109.503C246.704 108.239 247.501 110.7 247.473 111.358C247.35 114.284 246.964 117.201 246.263 120.05C244.413 127.564 240.815 134.586 236.163 140.818C222.401 159.257 200.873 172.43 178.799 179.298C139.841 191.42 95.1394 177.242 62.3455 155.562C47.984 146.068 31.7302 131.512 31.5024 113.195C31.1071 81.4069 79.3851 71.3908 101.616 60.477C113.528 54.6292 124.979 47.8129 135.199 39.4187C143.18 32.8631 149.504 24.2937 160.245 22.1004C198.526 14.2833 247.341 75.7005 247.5 109.505C247.507 110.986 246.63 107.508 246.611 107.197C246.415 104.01 245.837 100.85 245.035 97.757C242.989 89.8742 239.528 82.3559 235.47 75.2764C223.112 53.7192 202.55 30.0938 177.207 23.2042C167.746 20.6322 157.676 21.4016 149.534 27.0814C136.479 36.1898 126.107 47.477 111.925 55.4564C92.2867 66.5054 70.0566 72.8767 50.8633 84.594C40.357 91.008 32.1941 100.04 32.33 112.727C32.5965 137.618 60.5873 154.86 80.6665 164.576C126.52 186.763 176.104 189.568 217.706 157.29C232.727 145.636 246.346 129.051 246.682 109.503Z" fill="black"/>
<path d="M229.909 110.051C229.925 109.156 230.5 110.898 230.48 111.364C230.392 113.436 230.113 115.501 229.607 117.519C228.271 122.839 225.672 127.811 222.312 132.224C212.374 145.28 196.826 154.608 180.884 159.471C152.749 168.054 120.465 158.015 96.7809 142.664C86.4089 135.941 74.6704 125.634 74.5059 112.665C74.2204 90.1564 109.087 83.0642 125.142 75.3364C133.745 71.1957 142.015 66.3692 149.396 60.4255C155.16 55.7836 159.727 49.7159 167.484 48.1628C195.131 42.6277 230.385 86.1158 230.5 110.052C230.505 111.1 229.872 108.638 229.858 108.418C229.716 106.161 229.299 103.923 228.72 101.734C227.242 96.1519 224.743 90.8283 221.812 85.8155C212.887 70.5514 198.037 53.8228 179.734 48.9444C172.902 47.1232 165.629 47.668 159.749 51.6898C150.32 58.1392 142.83 66.1314 132.587 71.7815C118.404 79.605 102.35 84.1163 88.4884 92.4131C80.9007 96.9547 75.0054 103.35 75.1035 112.334C75.2961 129.958 95.5111 142.167 110.012 149.046C143.128 164.756 178.937 166.742 208.982 143.887C219.831 135.635 229.667 123.892 229.909 110.051Z" fill="black"/>
<path d="M250.863 120.801C250.878 119.272 250.94 127.958 249.68 131.218C246.948 138.285 242.221 144.519 237.157 150.073C220.887 167.918 198.59 180.539 176.041 188.595C200.96 179.642 250.551 152.063 250.863 120.801ZM100.006 191.271C85.8688 186.503 72.5025 179.371 60.5311 170.477C42.9499 157.415 17.0958 132.709 21.6649 107.941C26.1899 83.4111 90.5132 51.6864 110 40.7576C171.072 6.50666 206.665 2.07169 241.498 78.1353C247.53 91.3073 252.033 106.193 251.863 120.806C251.845 122.351 250.41 113.784 250.25 112.571C249.462 106.616 248.034 100.749 246.194 95.0354C240.712 78.0122 235.39 56.7449 222.5 44.2576C190.5 13.2576 166.742 14.9624 148.295 22.5087C121.986 33.2716 37.6891 76.645 25.9007 104.682C11.2413 139.548 73.835 182.117 100.006 191.271Z" fill="black"/>
<path d="M235.743 115.094C235.754 113.942 235.801 120.487 234.852 122.943C232.793 128.269 229.231 132.966 225.415 137.151C213.155 150.598 196.354 160.109 179.362 166.179C198.139 159.433 235.508 138.651 235.743 115.094ZM122.067 168.196C111.414 164.603 101.342 159.228 92.3208 152.526C79.0727 142.684 59.5907 124.067 63.0337 105.403C66.4435 86.919 114.914 63.0132 129.598 54.778C175.618 28.9686 202.438 25.6267 228.686 82.9435C233.232 92.8691 236.625 104.086 236.496 115.098C236.483 116.262 235.402 109.806 235.281 108.892C234.687 104.405 233.612 99.9837 232.225 95.6784C228.094 82.8507 224.084 66.825 214.371 57.4154C190.257 34.0557 172.355 35.3403 158.455 41.0268C138.629 49.137 75.1085 81.8205 66.2255 102.948C55.1791 129.22 102.346 161.298 122.067 168.196Z" fill="black"/>
</svg>
